<?xml version="1.0" encoding="utf-8"?>
<!-- Generator: Adobe Illustrator 28.0.0, SVG Export Plug-In . SVG Version: 6.00 Build 0)  -->
<svg version="1.1" id="Layer_1" xmlns="http://www.w3.org/2000/svg" xmlns:xlink="http://www.w3.org/1999/xlink" x="0px" y="0px"
	 viewBox="0 0 44 42" style="enable-background:new 0 0 44 42;" xml:space="preserve">
<style type="text/css">
	.st0{fill:#E50000;}
</style>
<path class="st0" d="M15.3,42l-3.8-6.5L3.9,34l0.8-7.4L0,21l4.8-5.6L4,8.1l7.5-1.6L15.3,0L22,3.1L28.7,0l3.8,6.6L40,8.1l-0.8,7.4
	L44,21l-4.8,5.6L40,34l-7.5,1.5L28.7,42L22,38.9L15.3,42z M19.9,27.6l11.4-11.2L29,14.3l-9.1,9l-4.8-5l-2.3,2.2
	C12.8,20.6,19.9,27.6,19.9,27.6z M16.6,38l5.4-2.2l5.5,2.2l3.4-5l5.9-1.5l-0.6-6l4-4.6l-4-4.7l0.6-5.9l-5.9-1.4l-3.5-5L22,6.2
	L16.5,4l-3.4,5l-5.8,1.4l0.6,5.9L3.8,21l4.1,4.6l-0.6,6.1l5.8,1.4C13.1,33.1,16.6,38.1,16.6,38z"/>
</svg>
