<?xml version="1.0" encoding="UTF-8"?>
<svg id="Layer_1" data-name="Layer 1" xmlns="http://www.w3.org/2000/svg" viewBox="0 0 32 40">
  <defs>
    <style>
      .cls-1 {
        fill: #f15922;
      }
    </style>
  </defs>
  <path class="cls-1" d="M10.5,21.5V12.25l5.5-3.65,5.5,3.65v9.25h-3v-6h-5v6h-3Zm5.5,14.55c4.43-4.03,7.71-7.69,9.83-10.97,2.12-3.28,3.17-6.18,3.17-8.68,0-3.93-1.26-7.15-3.78-9.65-2.52-2.5-5.59-3.75-9.22-3.75s-6.71,1.25-9.23,3.75c-2.52,2.5-3.77,5.72-3.77,9.65,0,2.5,1.08,5.39,3.25,8.68,2.17,3.28,5.42,6.94,9.75,10.97Zm0,3.95c-5.37-4.57-9.38-8.81-12.02-12.73-2.65-3.92-3.98-7.54-3.98-10.88C0,11.4,1.61,7.42,4.82,4.45,8.04,1.48,11.77,0,16,0s7.96,1.48,11.17,4.45c3.22,2.97,4.83,6.95,4.83,11.95,0,3.33-1.33,6.96-3.97,10.88-2.65,3.92-6.66,8.16-12.03,12.73Z"/>
</svg>