<?xml version="1.0" encoding="utf-8"?>
<!-- Generator: Adobe Illustrator 28.0.0, SVG Export Plug-In . SVG Version: 6.00 Build 0)  -->
<svg version="1.1" id="Layer_1" xmlns="http://www.w3.org/2000/svg" xmlns:xlink="http://www.w3.org/1999/xlink" x="0px" y="0px"
	 viewBox="0 0 1184.5 281.9" style="enable-background:new 0 0 1184.5 281.9;" xml:space="preserve">
<style type="text/css">
	.st0{fill:#ECECEC;}
</style>
<g>
	<polygon class="st0" points="360.3,91.6 287,91.6 287,101.3 318.1,101.3 318.1,181.7 329.2,181.7 329.2,101.3 360.3,101.3 	"/>
	<path class="st0" d="M526.2,91.6H514l-26.1,35.6l-26.2-35.6h-12.8l32.1,43.8l-33.8,45.8l-41-89.6h-10.3l-41.2,90.2h11.6l10.6-23.6
		H425l10.6,23.6h11.1h0.7h12.2l28-38.3l28.1,38.3h13l-34.4-46.6L526.2,91.6z M381,148.8l19.9-44.6l19.9,44.6H381z"/>
	<polygon class="st0" points="554.3,91.6 543.2,91.6 543.2,181.7 603.8,181.7 603.8,171.9 554.3,171.9 	"/>
	<rect x="616.8" y="91.6" class="st0" width="11.1" height="90.2"/>
	<polygon class="st0" points="662.9,140.8 708.7,140.8 708.7,131.1 662.9,131.1 662.9,101.3 714.2,101.3 714.2,91.6 651.9,91.6 
		651.9,181.7 716.1,181.7 716.1,171.9 662.9,171.9 	"/>
	<polygon class="st0" points="795.9,161.8 740.4,91.9 740.2,91.6 731.2,91.6 731.2,181.7 742.3,181.7 742.3,111.5 797.6,181.4 
		797.9,181.7 806.8,181.7 806.8,91.6 795.9,91.6 	"/>
	<path class="st0" d="M872.3,100.8c10.4,0,18.8,3.3,25.6,10.2l0.6,0.6l7.1-7.1l-0.5-0.6c-7.7-8.5-19.5-13.2-33-13.2
		c-13.1,0-25.1,4.6-33.8,13c-8.7,8.4-13.5,20.1-13.5,32.8c0,12.8,4.8,24.4,13.4,32.8c8.6,8.4,20.6,13,33.7,13
		c13.5,0,25.3-4.7,33.1-13.3l0.5-0.6l-7.1-7.1l-0.6,0.6c-6.7,7-15.1,10.4-25.5,10.4c-20.8,0-36.6-15.4-36.6-35.8
		S851.5,100.8,872.3,100.8z"/>
	<path class="st0" d="M959.2,90.8c-13.2,0-25.2,4.6-33.9,13.1c-8.7,8.4-13.5,20.1-13.5,32.8s4.8,24.4,13.5,32.8
		c8.7,8.4,20.7,13.1,33.9,13.1c26.9,0,47.2-19.7,47.2-45.8S986.1,90.8,959.2,90.8z M959.2,172.4c-21.1,0-36.4-15.1-36.4-35.8
		c0-20.7,15.3-35.8,36.4-35.8c21,0,36.2,15.1,36.2,35.8C995.4,157.4,980.2,172.4,959.2,172.4z"/>
	<path class="st0" d="M1056.7,91.6h-36.9v90.2h36.9c28.4,0,48.2-18.5,48.2-45.1S1085.1,91.6,1056.7,91.6z M1056.2,171.9h-25.3v-70.6
		h25.3c22.6,0,37.8,14.2,37.8,35.3S1078.8,171.9,1056.2,171.9z"/>
	<polygon class="st0" points="1131.3,171.9 1131.3,140.8 1177,140.8 1177,131.1 1131.3,131.1 1131.3,101.3 1182.6,101.3 
		1182.6,91.6 1120.2,91.6 1120.2,181.7 1184.5,181.7 1184.5,171.9 	"/>
	<path class="st0" d="M181.7,9.2C170.1,5.5,138.9,0,100.2,0c-38.7,0-70,5.5-81.5,9.2C7.5,12.8,0,22.7,0,33.9v112.3
		c0,43.4,20.5,85,55,111.3c12,9.2,25.7,15.5,39,21.5l6.3,2.8l6.2-2.8c13.3-6.1,27-12.3,39-21.5c34.4-26.3,55-68,55-111.3V33.9
		C200.4,22.7,192.9,12.8,181.7,9.2z M36.5,53.8c0-9.2,7.5-16.7,16.7-16.7h93.9c9.2,0,16.7,7.5,16.7,16.7v165.8
		c0,9.2-7.5,16.7-16.7,16.7H53.2c-9.2,0-16.7-7.5-16.7-16.7V53.8z M147.1,27.6H53.2c-14.4,0-26.2,11.7-26.2,26.2v157.7
		c-11.5-20-17.6-42.5-17.6-65.3V33.9c0-7.1,4.9-13.4,12.1-15.7c11-3.5,41.1-8.8,78.7-8.8c37.6,0,67.6,5.2,78.7,8.8
		c7.2,2.3,12.1,8.6,12.1,15.7v112.3c0,22.7-6.1,45.3-17.6,65.3V53.8C173.3,39.4,161.6,27.6,147.1,27.6z M144.9,245.8
		c-1.9,1.6-3.5,3-5.2,4.2c-11.2,8.5-24.4,14.6-37.2,20.5l-2.3,1l-2.3-1c-12.8-5.9-26-11.9-37.2-20.5c-1.7-1.3-3.3-2.6-5.2-4.2H144.9
		z"/>
	<path class="st0" d="M59.3,218.3c2.6,0,4.7-2.1,4.7-4.7v-144c0-2.8,2.3-5,5-5l72.1,0c2.6,0,4.7-2.1,4.7-4.7s-2.1-4.7-4.7-4.7H69
		c-8,0-14.5,6.5-14.5,14.5v144C54.5,216.2,56.7,218.3,59.3,218.3z"/>
	<path class="st0" d="M140.6,208.9H96.5c-2.8,0-5-2.3-5-5V87.3c0-2.6-2.1-4.7-4.7-4.7S82,84.7,82,87.3v116.6c0,8,6.5,14.5,14.5,14.5
		h44.2c2.6,0,4.7-2.1,4.7-4.7S143.2,208.9,140.6,208.9z"/>
	<path class="st0" d="M140.6,154c-2.6,0-4.7,2.1-4.7,4.7v17.6c0,2.8-2.3,5-5,5h-7.4c-2.8,0-5-2.3-5-5V97c0-2.8,2.3-5,5-5h7.4
		c2.8,0,5,2.3,5,5v17.8c0,2.6,2.1,4.7,4.7,4.7c2.6,0,4.7-2.1,4.7-4.7V97c0-8-6.5-14.5-14.5-14.5h-7.4c-8,0-14.5,6.5-14.5,14.5v79.3
		c0,8,6.5,14.5,14.5,14.5h7.4c8,0,14.5-6.5,14.5-14.5v-17.6C145.4,156.1,143.2,154,140.6,154z"/>
	<circle class="st0" cx="140.6" cy="136.7" r="6.2"/>
</g>
</svg>
