<?xml version="1.0" encoding="utf-8"?>
<!-- Generator: Adobe Illustrator 28.0.0, SVG Export Plug-In . SVG Version: 6.00 Build 0)  -->
<svg version="1.1" id="Layer_1" xmlns="http://www.w3.org/2000/svg" xmlns:xlink="http://www.w3.org/1999/xlink" x="0px" y="0px"
	 viewBox="0 0 467.8 658.9" style="enable-background:new 0 0 467.8 658.9;" xml:space="preserve">
<style type="text/css">
	.st0{fill:#ECECEC;}
</style>
<g>
	<path class="st0" d="M424.9,21.6C397.7,12.9,324.5,0,233.9,0c-90.6,0-163.8,12.9-191,21.6C17.3,29.8,0,52.6,0,78.5v263.4
		c0,101.3,48,198.6,128.5,260.2c28,21.5,60.2,36.2,91.2,50.4l14.2,6.4l14.2-6.4c31-14.2,63.1-28.9,91.2-50.4
		c80.5-61.6,128.5-158.9,128.5-260.2V78.5C467.8,52.6,450.5,29.8,424.9,21.6z M344,64.8H123.8c-33.2,0-60.3,27-60.3,60.3v374.3
		C34.9,451.3,19.8,397,19.8,341.9V78.5c0-17.2,11.7-32.5,29.1-38c26-8.3,96.6-20.6,184.9-20.6c88.3,0,159,12.3,184.9,20.6
		c17.4,5.6,29.1,20.9,29.1,38v263.4c0,55.1-15.1,109.4-43.7,157.5V125C404.3,91.8,377.3,64.8,344,64.8z M83.3,125
		c0-22.3,18.1-40.5,40.5-40.5H344c22.3,0,40.5,18.1,40.5,40.5v389c0,22.3-18.1,40.5-40.5,40.5H123.8c-22.3,0-40.5-18.1-40.5-40.5
		V125z M341.9,574.3c-5.3,4.7-10,8.5-14.6,12.1h0c-26.3,20.1-57.4,34.4-87.4,48.1l-5.9,2.6l-5.9-2.7c-30.1-13.8-61.1-28-87.4-48.1
		c-4.6-3.5-9.3-7.4-14.6-12H341.9z"/>
	<path class="st0" d="M137.9,509.8c5.5,0,9.9-4.4,9.9-9.9V162c0-7.2,5.8-13,13-13h169.2c5.5,0,9.9-4.4,9.9-9.9s-4.4-9.9-9.9-9.9
		H160.7c-18.1,0-32.8,14.7-32.8,32.8v337.9C127.9,505.4,132.4,509.8,137.9,509.8z"/>
	<path class="st0" d="M328.8,490H225.2c-7.2,0-13-5.8-13-13V203.6c0-5.5-4.4-9.9-9.9-9.9s-9.9,4.4-9.9,9.9V477
		c0,18.1,14.7,32.8,32.8,32.8h103.6c5.5,0,9.9-4.4,9.9-9.9S334.3,490,328.8,490z"/>
	<path class="st0" d="M328.8,361.3c-5.5,0-9.9,4.4-9.9,9.9v41.4c0,7.2-5.8,13-13,13h-17.4c-7.2,0-13-5.8-13-13V226.5
		c0-7.2,5.8-13,13-13h17.4c7.2,0,13,5.8,13,13v41.8c0,5.5,4.4,9.9,9.9,9.9s9.9-4.4,9.9-9.9v-41.8c0-18.1-14.7-32.8-32.8-32.8h-17.4
		c-18.1,0-32.8,14.7-32.8,32.8v186.1c0,18.1,14.7,32.8,32.8,32.8h17.4c18.1,0,32.8-14.7,32.8-32.8v-41.4
		C338.7,365.8,334.3,361.3,328.8,361.3z"/>
	<circle class="st0" cx="328.8" cy="319.5" r="13.3"/>
</g>
</svg>
