<?xml version="1.0" encoding="utf-8"?>
<!-- Generator: Adobe Illustrator 28.0.0, SVG Export Plug-In . SVG Version: 6.00 Build 0)  -->
<svg version="1.1" id="Layer_1" xmlns="http://www.w3.org/2000/svg" xmlns:xlink="http://www.w3.org/1999/xlink" x="0px" y="0px"
	 viewBox="0 0 500 500" style="enable-background:new 0 0 500 500;" xml:space="preserve">
<style type="text/css">
	.st0{fill:#20323D;}
</style>
<g>
	<path class="st0" d="M392.2,21.5c-20.2-6.5-74.5-16-141.7-16s-121.5,9.6-141.7,16c-19,6.1-31.8,23-31.8,42.2v195.4
		c0,75.2,35.6,147.3,95.3,193c20.8,16,44.7,26.9,67.7,37.4l10.5,4.7l10.5-4.7c23-10.5,46.8-21.4,67.7-37.4
		c59.7-45.7,95.3-117.9,95.3-193V63.7C424,44.5,411.2,27.6,392.2,21.5z M332.2,53.6H168.8c-24.6,0-44.7,20-44.7,44.7V376
		c-21.2-35.7-32.4-76-32.4-116.8V63.7c0-12.8,8.7-24.1,21.6-28.2c19.3-6.2,71.7-15.3,137.2-15.3s118,9.1,137.2,15.3
		c12.9,4.2,21.6,15.5,21.6,28.2v195.4c0,40.9-11.2,81.2-32.4,116.8V98.2C376.9,73.6,356.9,53.6,332.2,53.6z M138.8,98.2
		c0-16.5,13.4-30,30-30h163.4c16.5,0,30,13.4,30,30v288.6c0,16.5-13.4,30-30,30H168.8c-16.5,0-30-13.4-30-30V98.2z M330.6,431.6
		c-3.9,3.5-7.4,6.3-10.8,9l0,0c-19.5,14.9-42.6,25.5-64.8,35.7l-4.4,1.9l-4.4-2c-22.3-10.2-45.3-20.8-64.8-35.7
		c-3.4-2.6-6.9-5.5-10.8-8.9L330.6,431.6L330.6,431.6z"/>
	<path class="st0" d="M179.3,383.7c4.1,0,7.3-3.3,7.3-7.3V125.7c0-5.3,4.3-9.6,9.6-9.6h125.5c4.1,0,7.3-3.3,7.3-7.3
		s-3.3-7.3-7.3-7.3H196.2c-13.4,0-24.3,10.9-24.3,24.3v250.7C171.8,380.5,175.2,383.7,179.3,383.7z"/>
	<path class="st0" d="M320.9,369H244c-5.3,0-9.6-4.3-9.6-9.6V156.6c0-4.1-3.3-7.3-7.3-7.3c-4.1,0-7.3,3.3-7.3,7.3v202.8
		c0,13.4,10.9,24.3,24.3,24.3h76.9c4.1,0,7.3-3.3,7.3-7.3S325,369,320.9,369z"/>
	<path class="st0" d="M320.9,273.5c-4.1,0-7.3,3.3-7.3,7.3v30.7c0,5.3-4.3,9.6-9.6,9.6H291c-5.3,0-9.6-4.3-9.6-9.6V173.5
		c0-5.3,4.3-9.6,9.6-9.6h12.9c5.3,0,9.6,4.3,9.6,9.6v31c0,4.1,3.3,7.3,7.3,7.3s7.3-3.3,7.3-7.3v-31c0-13.4-10.9-24.3-24.3-24.3H291
		c-13.4,0-24.3,10.9-24.3,24.3v138.1c0,13.4,10.9,24.3,24.3,24.3h12.9c13.4,0,24.3-10.9,24.3-24.3v-30.7
		C328.2,276.9,325,273.5,320.9,273.5z"/>
	<circle class="st0" cx="320.9" cy="242.5" r="9.9"/>
</g>
</svg>
