<?xml version="1.0" standalone="no"?>
<!DOCTYPE svg PUBLIC "-//W3C//DTD SVG 20010904//EN"
 "http://www.w3.org/TR/2001/REC-SVG-20010904/DTD/svg10.dtd">
<svg version="1.0" xmlns="http://www.w3.org/2000/svg"
 width="700.000000pt" height="700.000000pt" viewBox="0 0 700.000000 700.000000"
 preserveAspectRatio="xMidYMid meet">
<metadata>
Created by potrace 1.14, written by Peter Selinger 2001-2017
</metadata>
<g transform="translate(0.000000,700.000000) scale(0.100000,-0.100000)"
fill="#000000" stroke="none">
<path d="M3347 6924 c-1 -1 -90 -5 -198 -8 -108 -4 -216 -9 -240 -11 -24 -2
-87 -6 -139 -10 -52 -4 -108 -8 -125 -9 -16 -2 -64 -7 -105 -10 -41 -4 -86 -9
-100 -11 -14 -2 -47 -6 -75 -9 -27 -3 -66 -8 -85 -11 -19 -2 -55 -7 -80 -10
-41 -6 -243 -38 -315 -50 -197 -35 -429 -100 -466 -132 -8 -7 -21 -13 -27 -13
-10 0 -107 -74 -143 -110 -80 -80 -149 -222 -164 -340 -9 -68 -9 -2875 0
-3025 3 -60 8 -121 10 -135 2 -14 6 -50 10 -80 48 -400 197 -857 397 -1216
305 -550 728 -985 1249 -1285 150 -86 504 -259 715 -349 l41 -18 99 44 c54 25
122 55 149 66 92 40 419 206 520 264 147 84 352 226 431 299 7 5 36 30 65 55
220 185 470 482 653 773 221 353 404 836 462 1217 2 19 7 46 9 60 37 202 39
308 39 1860 0 1647 6 1532 -75 1678 -74 134 -198 237 -352 294 -116 42 -487
120 -677 142 -25 3 -79 10 -120 15 -113 15 -158 20 -235 26 -38 4 -81 8 -95
10 -14 3 -68 7 -120 10 -52 3 -117 8 -145 10 -114 9 -761 25 -768 19z m643
-218 c169 -9 239 -14 428 -31 132 -12 179 -18 352 -41 207 -28 438 -71 577
-109 181 -48 277 -119 343 -251 l35 -69 1 -1510 c1 -830 -2 -1544 -6 -1585
-16 -145 -21 -180 -41 -292 -52 -293 -164 -631 -287 -867 -68 -133 -106 -201
-112 -201 -3 0 -5 888 -5 1974 1 1857 0 1978 -17 2046 -58 236 -233 406 -478
466 -86 21 -2446 20 -2545 -1 -243 -51 -440 -252 -486 -496 -9 -48 -12 -551
-12 -2032 l0 -1968 -40 68 c-128 221 -270 583 -327 838 -7 28 -14 59 -16 70
-19 83 -44 245 -60 395 -4 36 -8 735 -9 1555 -1 1125 2 1501 11 1536 30 117
115 218 229 274 56 27 202 70 304 90 49 9 191 35 219 40 17 3 45 7 61 10 16 3
49 7 72 10 24 3 55 8 69 10 40 7 222 28 345 40 22 2 78 7 125 10 47 4 101 8
120 10 19 2 116 7 215 11 99 3 181 7 182 8 5 5 646 -2 753 -8z m782 -678 c124
-41 220 -131 274 -258 19 -44 19 -99 22 -2135 1 -1428 -1 -2106 -8 -2140 -30
-142 -148 -270 -290 -312 -50 -15 -169 -17 -1250 -18 -864 -1 -1209 2 -1245
10 -163 38 -294 172 -322 331 -15 81 -13 4146 2 4210 37 158 162 284 319 319
35 8 396 11 1250 10 1055 -2 1207 -4 1248 -17z m-152 -5077 c-1 -19 -320 -251
-407 -296 -21 -10 -50 -27 -64 -37 -64 -43 -613 -308 -638 -308 -38 0 -541
248 -712 350 -103 62 -275 180 -314 217 -11 10 -36 32 -56 49 l-36 31 1113 0
c613 0 1114 -3 1114 -6z"/>
<path d="M2655 5566 c-112 -35 -193 -113 -230 -221 -16 -47 -18 -172 -19
-1845 -1 -1788 -1 -1795 19 -1825 39 -57 126 -60 165 -4 l22 29 0 1785 c0
1682 1 1786 18 1817 9 18 32 42 51 53 32 19 58 19 943 20 1002 1 940 -3 972
63 21 44 4 96 -40 123 -30 18 -60 19 -946 18 -704 0 -924 -3 -955 -13z"/>
<path d="M3123 4890 c-23 -14 -34 -29 -39 -57 -4 -21 -7 -687 -7 -1480 0
-1368 1 -1444 18 -1490 43 -115 123 -189 240 -224 25 -8 366 -10 1084 -9 l114
0 32 35 c42 44 41 94 -5 139 l-30 30 -572 1 c-630 1 -611 -1 -654 62 l-22 33
0 1446 c0 1120 -3 1452 -13 1475 -13 32 -54 59 -91 59 -13 0 -37 -9 -55 -20z"/>
<path d="M3973 4896 c-91 -29 -166 -97 -210 -191 l-28 -60 0 -1035 c0 -1196
-8 -1096 100 -1206 88 -90 136 -106 330 -106 189 0 241 16 326 101 93 93 101
127 103 416 1 132 -1 256 -5 275 -15 68 -84 99 -148 66 -47 -25 -51 -48 -51
-304 0 -261 -4 -283 -63 -326 -25 -19 -42 -21 -163 -20 -150 0 -173 8 -206 75
-17 32 -18 102 -18 1030 l0 996 23 34 c36 54 66 63 202 63 132 0 163 -9 199
-57 20 -27 21 -45 26 -294 l5 -265 28 -24 c59 -50 146 -25 165 48 4 15 6 138
6 272 -2 275 -7 306 -72 391 -43 57 -97 96 -162 118 -59 20 -326 22 -387 3z"/>
<path d="M4435 3730 c-74 -30 -103 -148 -52 -210 61 -76 196 -62 233 25 28 69
8 141 -50 176 -32 20 -95 24 -131 9z"/>
</g>
</svg>
